<?xml version="1.0" encoding="utf-8"?>
<!-- Generator: Adobe Illustrator 19.2.0, SVG Export Plug-In . SVG Version: 6.00 Build 0)  -->
<svg version="1.1" id="Layer_1" xmlns="http://www.w3.org/2000/svg" xmlns:xlink="http://www.w3.org/1999/xlink" x="0px" y="0px"
	 viewBox="0 0 225.3 225.3" style="enable-background:new 0 0 225.3 225.3;" xml:space="preserve">
<style type="text/css">
	.st0{fill:#FFFFFF;}
</style>
<title>LOGO-SVG</title>
<path class="st0" d="M0,0v225.3h225.3V0H0z M191.1,61.2c8.8,1.2,17,5.2,23.2,11.5l-14.5,16.9l-1,1c-2.2-2.5-4.8-4.6-7.8-6.1V61.2
	H191.1z M38.2,152.6c-0.8,0.8-1.6,1.5-2.5,2.2c-0.7-0.6-1.4-1.2-2-1.8c-8-8-10.1-17.3-10.1-28.1V61.8c5.5,1.2,10.5,3.9,14.6,7.8
	c9.8,9.8,10,26.7,10,41.5C48.2,125.8,48,142.8,38.2,152.6z M105.8,70.9v89.8H81.2V61.8h24.6C105.8,61.8,105.8,70.9,105.8,70.9z
	 M163.4,157.8c-13.4-6-24.6-19.6-24.6-46.7c0-20.6,6.4-33.3,15.4-40.9c7.2,7.8,9.2,16.8,9.2,27.2L163.4,157.8L163.4,157.8z
	 M194.1,160.6h-3v-22.7c3-1.5,5.6-3.6,7.8-6.1l16.7,16.5C209.8,154.5,202.3,158.8,194.1,160.6z"/>
</svg>
