<?xml version="1.0" encoding="UTF-8" standalone="no"?>
<svg width="1203px" height="878px" viewBox="0 0 1203 878" version="1.1" xmlns="http://www.w3.org/2000/svg" xmlns:xlink="http://www.w3.org/1999/xlink">
    <!-- Generator: Sketch 39.1 (31720) - http://www.bohemiancoding.com/sketch -->
    <title>Group 2</title>
    <desc>Created with Sketch.</desc>
    <defs></defs>
    <g id="Version-Final" stroke="none" stroke-width="1" fill="none" fill-rule="evenodd">
        <g id="About-Page" transform="translate(-364.000000, -67.000000)" fill="#2B2F31">
            <g id="Group-2" transform="translate(364.000000, 67.000000)">
                <path d="M280,855.11 L280,877.86 L283,877.86 C291.25228,876.0459 298.745394,871.733694 304.46,865.51 L287.76,849 C285.589207,851.515578 282.954647,853.589955 280,855.11 L280,855.11 Z" id="Shape" style="mix-blend-mode: multiply;"></path>
                <path d="M287.75,807.43 L288.75,806.43 L303.25,789.49 C296.975954,783.205295 288.803436,779.166489 280,778 L280,801.31 C282.951927,802.83408 285.583076,804.911839 287.75,807.43 L287.75,807.43 Z" id="Shape" style="mix-blend-mode: multiply;"></path>
                <path d="M483.56,49.2 C483.56,34.44 483.37,17.59 473.56,7.75 C469.495585,3.89922379 464.464146,1.2210882 459,0 L459,63.17 C459,73.99 461.09,83.28 469.06,91.25 C469.68,91.87 470.34,92.46 471.06,93.02 C471.947695,92.3503688 472.789577,91.6220745 473.58,90.84 C483.37,81 483.56,63.97 483.56,49.2 L483.56,49.2 Z" id="Shape" style="mix-blend-mode: multiply;"></path>
                <polygon id="Shape-Copy-7" style="mix-blend-mode: multiply;" points="24.6 298 0 298 0 396.85 24.6 396.85 24.6 307.1"></polygon>
                <polygon id="Shape" style="mix-blend-mode: multiply;" points="1056.6 709 1032 709 1032 807.85 1056.6 807.85 1056.6 718.1"></polygon>
                <path d="M1202.65,236.2 C1202.65,225.78 1200.65,216.78 1193.43,209 C1184.43,216.54 1178,229.28 1178,249.86 C1178,277 1189.26,290.62 1202.65,296.58 L1202.65,236.2 L1202.65,236.2 Z" id="Shape" style="mix-blend-mode: multiply;"></path>
            </g>
        </g>
    </g>
</svg>