<svg xmlns="http://www.w3.org/2000/svg" viewBox="0 0 841.89 595.28"><defs><style>.cls-1{isolation:isolate;}.cls-2{fill:#555759;mix-blend-mode:multiply;}</style></defs><title>LOGO-SVG</title><g class="cls-1"><g id="Laag_1" data-name="Laag 1"><path class="cls-2" d="M383.06,347.23v-9.11a32.7,32.7,0,0,1-24.15,10.25c-9.87,0-17.84-3.23-23.34-8.73-8-8-10.06-17.27-10.06-28.08V248.38h24.66v59.77c0,13.47,8.54,18,16.32,18s16.51-4.55,16.51-18V248.38h24.66v98.85H383.06Z"/><path class="cls-2" d="M440.55,347.23V287.46c0-13.47-8.54-18-16.32-18s-16.51,4.55-16.51,18v59.77H383.06V248.38h24.61v9.11a32.7,32.7,0,0,1,24.15-10.25c9.87,0,17.84,3.23,23.34,8.73,8,8,10.06,17.27,10.06,28.08v63.18H440.55Z"/><path class="cls-2" d="M549.67,347.23V286.9c0-13.09-8.35-17.46-16.13-17.46S517.6,274,517.6,286.9v60.34H492.94V212.14H517.6v45.35a32.66,32.66,0,0,1,23.72-10.25c21.63,0,33,15.18,33,36v63.94H549.67Z"/><path class="cls-2" d="M484.77,326.17a17.11,17.11,0,0,1-14-6.45c-3.79-4.74-5.5-11.57-5.5-22s1.71-17.08,5.5-21.82a17.12,17.12,0,0,1,14-6.45c6.45,0,10.82,2.28,15.94,7.78l1-1,14.5-16.94c-8.46-8.26-18.38-12.06-31.42-12.06-19.73,0-44.21,10.43-44.21,50.47s24.48,50.66,44.21,50.66c13.66,0,23.91-4.36,32.64-13.47l-16.7-16.51C495.59,323.89,491.22,326.17,484.77,326.17Z"/><path class="cls-2" d="M340,339.23c-5.49,5.49-14.38,8.9-24,8.9-10,0-17.41-2.65-23.85-9.84v44.86H267.55V248.38H291.4v9.27c6.81-7.57,14.2-10.41,24.61-10.41,9.65,0,18.55,3.41,24,8.9,9.84,9.84,10,26.69,10,41.45S349.89,329.39,340,339.23Zm-31.23-69.84c-14.76,0-16.66,12.11-16.66,28.2S294.05,326,308.81,326s16.66-12.3,16.66-28.39S323.58,269.39,308.81,269.39Z"/></g></g></svg>