<?xml version="1.0" encoding="UTF-8" standalone="no"?>
<svg width="308px" height="172px" viewBox="0 0 308 172" version="1.1" xmlns="http://www.w3.org/2000/svg" xmlns:xlink="http://www.w3.org/1999/xlink">
    <!-- Generator: Sketch 39.1 (31720) - http://www.bohemiancoding.com/sketch -->
    <title>LOGO-SVG-02</title>
    <desc>Created with Sketch.</desc>
    <defs></defs>
    <g id="Version-Final" stroke="none" stroke-width="1" fill="none" fill-rule="evenodd">
        <g id="LOGO-SVG-02" fill="#555759">
            <g id="LOGO-SVG">
                <g id="Laag_1">
                    <path d="M116.06,135.23 L116.06,126.12 C109.793542,132.757706 101.037806,136.473909 91.91,136.37 C82.04,136.37 74.07,133.14 68.57,127.64 C60.57,119.64 58.51,110.37 58.51,99.56 L58.51,36.38 L83.17,36.38 L83.17,96.15 C83.17,109.62 91.71,114.15 99.49,114.15 C107.27,114.15 116,109.6 116,96.15 L116,36.38 L140.66,36.38 L140.66,135.23 L116.06,135.23 L116.06,135.23 Z" id="Shape" style="mix-blend-mode: multiply;"></path>
                    <path d="M173.55,135.23 L173.55,75.46 C173.55,61.99 165.01,57.46 157.23,57.46 C149.45,57.46 140.72,62.01 140.72,75.46 L140.72,135.23 L116.06,135.23 L116.06,36.38 L140.67,36.38 L140.67,45.49 C146.936458,38.8522939 155.692194,35.1360914 164.82,35.24 C174.69,35.24 182.66,38.47 188.16,43.97 C196.16,51.97 198.22,61.24 198.22,72.05 L198.22,135.23 L173.55,135.23 L173.55,135.23 Z" id="Shape" style="mix-blend-mode: multiply;"></path>
                    <path d="M282.67,135.23 L282.67,74.9 C282.67,61.81 274.32,57.44 266.54,57.44 C258.76,57.44 250.6,62 250.6,74.9 L250.6,135.24 L225.94,135.24 L225.94,0.14 L250.6,0.14 L250.6,45.49 C256.761403,38.9578217 265.340461,35.2505979 274.32,35.24 C295.95,35.24 307.32,50.42 307.32,71.24 L307.32,135.18 L282.67,135.18 L282.67,135.23 Z" id="Shape" style="mix-blend-mode: multiply;"></path>
                    <path d="M217.77,114.17 C212.344314,114.36291 207.149059,111.969382 203.77,107.72 C199.98,102.98 198.27,96.15 198.27,85.72 C198.27,75.29 199.98,68.64 203.77,63.9 C207.150074,59.6519121 212.344638,57.2587026 217.77,57.45 C224.22,57.45 228.59,59.73 233.71,65.23 L234.71,64.23 L249.21,47.29 C240.75,39.03 230.83,35.23 217.79,35.23 C198.06,35.23 173.58,45.66 173.58,85.7 C173.58,125.74 198.06,136.36 217.79,136.36 C231.45,136.36 241.7,132 250.43,122.89 L233.73,106.38 C228.59,111.89 224.22,114.17 217.77,114.17 L217.77,114.17 Z" id="Shape" style="mix-blend-mode: multiply;"></path>
                    <path d="M73,127.23 C67.51,132.72 58.62,136.13 49,136.13 C39,136.13 31.59,133.48 25.15,126.29 L25.15,171.15 L0.55,171.15 L0.55,36.38 L24.4,36.38 L24.4,45.65 C31.21,38.08 38.6,35.24 49.01,35.24 C58.66,35.24 67.56,38.65 73.01,44.14 C82.85,53.98 83.01,70.83 83.01,85.59 C83.01,100.35 82.89,117.39 73,127.23 L73,127.23 Z M41.77,57.39 C27.01,57.39 25.11,69.5 25.11,85.59 C25.11,101.68 27.05,114 41.81,114 C56.57,114 58.47,101.7 58.47,85.61 C58.47,69.52 56.58,57.39 41.81,57.39 L41.77,57.39 Z" id="Shape" style="mix-blend-mode: multiply;"></path>
                </g>
            </g>
        </g>
    </g>
</svg>