<?xml version="1.0" encoding="UTF-8" standalone="no"?>
<svg width="496px" height="172px" viewBox="0 0 496 172" version="1.1" xmlns="http://www.w3.org/2000/svg" xmlns:xlink="http://www.w3.org/1999/xlink">
    <!-- Generator: Sketch 39.1 (31720) - http://www.bohemiancoding.com/sketch -->
    <title>LOGO-SVG-01</title>
    <desc>Created with Sketch.</desc>
    <defs></defs>
    <g id="Version-Final" stroke="none" stroke-width="1" fill="none" fill-rule="evenodd">
        <g id="LOGO-SVG-01" fill="#555759">
            <g id="LOGO-SVG">
                <g id="Laag_1">
                    <path d="M73,127.19 C67.51,132.68 58.62,136.09 49,136.09 C39,136.09 31.59,133.44 25.15,126.25 L25.15,171.1 L0.47,171.1 L0.47,36.33 L24.32,36.33 L24.32,45.6 C31.13,38.03 38.52,35.19 48.93,35.19 C58.58,35.19 67.48,38.6 72.93,44.09 C82.77,53.93 82.93,70.78 82.93,85.54 C82.93,100.3 82.8,117.34 73,127.19 L73,127.19 Z M41.77,57.35 C27.01,57.35 25.11,69.46 25.11,85.55 C25.11,101.64 27,113.94 41.77,113.94 C56.54,113.94 58.43,101.64 58.43,85.55 C58.43,69.46 56.49,57.34 41.73,57.34 L41.77,57.35 Z" id="Shape"></path>
                    <path d="M163.24,134.95 L163.24,125.86 C156.785744,132.498068 147.887892,136.193154 138.63,136.08 C128.79,136.08 120.84,132.86 115.35,127.37 C107.4,119.42 105.35,110.15 105.35,99.37 L105.35,36.37 L129.96,36.37 L129.96,96 C129.96,109.44 138.48,114 146.24,114 C154,114 162.71,109.46 162.71,96 L162.71,36.33 L187.32,36.33 L187.32,134.94 L163.32,134.94 L163.24,134.95 Z" id="Shape"></path>
                    <path d="M272.27,134.95 L272.27,75.32 C272.27,61.88 263.75,57.32 255.99,57.32 C248.23,57.32 239.52,61.86 239.52,75.32 L239.52,134.94 L214.92,134.94 L214.92,36.33 L238.92,36.33 L238.92,45.42 C245.373579,38.780936 254.27188,35.0856644 263.53,35.2 C273.37,35.2 281.32,38.42 286.81,43.91 C294.76,51.91 296.81,61.13 296.81,71.91 L296.81,134.91 L272.27,134.91 L272.27,134.95 Z" id="Shape"></path>
                    <path d="M470.82,134.95 L470.82,74.76 C470.82,61.7 462.49,57.35 454.73,57.35 C446.97,57.35 438.83,61.89 438.83,74.76 L438.83,134.95 L414.22,134.95 L414.22,0.18 L438.83,0.18 L438.83,45.42 C444.9767,38.9061056 453.533849,35.2098224 462.49,35.2 C484.07,35.2 495.42,50.34 495.42,71.2 L495.42,134.99 L470.82,134.99 L470.82,134.95 Z" id="Shape"></path>
                    <path d="M362.56,114.57 C357.134314,114.76291 351.939059,112.369382 348.56,108.12 C344.77,103.38 343.06,96.55 343.06,86.12 C343.06,75.69 344.77,69.04 348.56,64.3 C351.940074,60.0519121 357.134638,57.6587026 362.56,57.85 C369.01,57.85 373.38,60.13 378.5,65.63 L379.5,64.63 L394,47.71 C385.54,39.45 375.62,35.65 362.58,35.65 C342.85,35.65 318.37,46.08 318.37,86.12 C318.37,126.16 342.85,136.78 362.58,136.78 C376.24,136.78 386.49,132.42 395.22,123.31 L378.52,106.8 C373.38,112.3 369,114.57 362.56,114.57 L362.56,114.57 Z" id="Shape" style="mix-blend-mode: multiply;"></path>
                </g>
            </g>
        </g>
    </g>
</svg>