<?xml version="1.0" encoding="UTF-8" standalone="no"?>
<svg width="192px" height="101px" viewBox="0 0 192 101" version="1.1" xmlns="http://www.w3.org/2000/svg" xmlns:xlink="http://www.w3.org/1999/xlink">
    <!-- Generator: Sketch 39.1 (31720) - http://www.bohemiancoding.com/sketch -->
    <title>logo_animation_shape</title>
    <desc>Created with Sketch.</desc>
    <defs></defs>
    <g id="Version-Final" stroke="none" stroke-width="1" fill="none" fill-rule="evenodd">
        <g id="logo_animation_shape" fill="#2B2F31">
            <g id="LOGO-SVG">
                <g id="Laag_1">
                    <path d="M24.56,50.7 C24.56,35.94 24.37,19.09 14.56,9.25 C10.4955851,5.39922379 5.46414583,2.7210882 0,1.5 L0,64.67 C0,75.49 2.09,84.78 10.06,92.75 C10.68,93.37 11.34,93.96 12.06,94.52 C12.9476955,93.8503688 13.7895769,93.1220745 14.58,92.34 C24.37,82.5 24.56,65.47 24.56,50.7 L24.56,50.7 Z" id="Shape" style="mix-blend-mode: multiply;"></path>
                    <polygon id="Shape" style="mix-blend-mode: multiply;" points="82.15 1.5 57.55 1.5 57.55 100.35 82.15 100.35 82.15 10.6"></polygon>
                    <path d="M139.7,37.17 C139.7,26.75 137.7,17.75 130.48,9.97 C121.48,17.51 115.05,30.25 115.05,50.83 C115.05,77.97 126.31,91.59 139.7,97.55 L139.7,37.17 L139.7,37.17 Z" id="Shape" style="mix-blend-mode: multiply;"></path>
                    <path d="M167.43,77.6 L167.43,100.35 L170.43,100.35 C178.68228,98.5359004 186.175394,94.2236935 191.89,88 L175.19,71.49 C173.019207,74.0055782 170.384647,76.0799552 167.43,77.6 L167.43,77.6 Z" id="Shape" style="mix-blend-mode: multiply;"></path>
                    <path d="M175.2,30.33 L176.2,29.33 L190.7,12.39 C184.425954,6.1052945 176.253436,2.06648861 167.45,0.9 L167.45,24.21 C170.401927,25.7340804 173.033076,27.8118395 175.2,30.33 L175.2,30.33 Z" id="Shape" style="mix-blend-mode: multiply;"></path>
                </g>
            </g>
        </g>
    </g>
</svg>